<svg xmlns="http://www.w3.org/2000/svg" viewBox="0 0 236.736 52.835">
  <defs>
    <style>
      .cls-1 {
        fill: #010101;
      }

      .cls-2 {
        fill: #f47920;
      }

      .cls-3 {
        fill: #f26922;
      }
    </style>
  </defs>
  <g id="NganLuong-01" transform="translate(0 1.006)">
    <path id="Path_1" data-name="Path 1" class="cls-1" d="M8.717,95.678a16.835,16.835,0,0,0,1.675.849,17.118,17.118,0,0,0,14.563-.387c.426-.213.854-.451,1.27-.7a17.286,17.286,0,0,0,5.185-4.9l1.006-1.439H18.4c-.447,0-1.011,0-1.131-.023l.266.077a20.7,20.7,0,0,1-7.206-6.955c-.291-.437-.56-.881-.8-1.323A18.966,18.966,0,0,1,7.345,68.614L7.75,66.09l-1.916,1.7A17.22,17.22,0,0,0,8.717,95.678Z" transform="translate(0 -55.278)"/>
    <path id="Path_2" data-name="Path 2" class="cls-1" d="M138.67,53.22a16.664,16.664,0,0,0-1.675-.849,17.115,17.115,0,0,0-14.563.384c-.43.217-.861.454-1.272.7a17.93,17.93,0,0,0-5.407,4.974l-.993,1.437h14.557l-.391-.086.2.092a19.394,19.394,0,0,1,7.94,6.83c.287.432.558.881.8,1.324a19.308,19.308,0,0,1,2.411,9.335,18.619,18.619,0,0,1-.24,2.936l-.4,2.5,1.909-1.694A17.22,17.22,0,0,0,138.67,53.22Z" transform="translate(-94.547 -42.788)"/>
    <path id="Path_3" data-name="Path 3" class="cls-2" d="M78.361,6.1a18.846,18.846,0,0,1,2.934.24l2.522.4L82.124,4.829A17.248,17.248,0,0,0,53.77,23.951c.21.423.447.851.7,1.268a18.2,18.2,0,0,0,4.907,5.418l1.439,1.006V21.408c0-1.992,0-5.029.011-5.224l-.1.4a20.727,20.727,0,0,1,6.982-7.267c.432-.285.881-.555,1.325-.8A19.281,19.281,0,0,1,78.361,6.1Z" transform="translate(-42.793 0)"/>
    <path id="Path_4" data-name="Path 4" class="cls-2" d="M72.563,140.122a19.069,19.069,0,0,1-2.931-.24l-2.522-.405,1.693,1.911A17.222,17.222,0,0,0,96.7,138.5a16.643,16.643,0,0,0,.847-1.67,17.115,17.115,0,0,0-.386-14.561c-.213-.428-.451-.854-.7-1.272a17.3,17.3,0,0,0-4.97-5.228l-1.435-1v14.54l.076-.37A19.04,19.04,0,0,1,83.21,136.9c-.426.287-.872.557-1.321.8A19.287,19.287,0,0,1,72.563,140.122Z" transform="translate(-55.289 -95.392)"/>
    <path id="Path_5" data-name="Path 5" class="cls-1" d="M343.665,52l9.027,11.348V55.475a3.725,3.725,0,0,0-.472-2.226,2.615,2.615,0,0,0-2.173-.756V52h6.045v.5a4.6,4.6,0,0,0-1.559.384,1.554,1.554,0,0,0-.62.77,5.238,5.238,0,0,0-.222,1.828V70.716h-.458l-12.37-15.241V67.1a2.553,2.553,0,0,0,.722,2.131,2.642,2.642,0,0,0,1.654.553h.426v.5H337.18v-.495a2.978,2.978,0,0,0,2.114-.62,2.846,2.846,0,0,0,.594-2.064V54.195l-.391-.486a3.546,3.546,0,0,0-1.025-.956,3.087,3.087,0,0,0-1.282-.255V52Z" transform="translate(-277.792 -43.67)"/>
    <path id="Path_6" data-name="Path 6" class="cls-1" d="M462.088,82.6h4.25V84.09h-2.415a4.593,4.593,0,0,1,.918,1.2,3.714,3.714,0,0,1,.328,1.532,3.773,3.773,0,0,1-.749,2.341,4.97,4.97,0,0,1-2.038,1.552,5.851,5.851,0,0,1-2.29.56q-.081,0-1.619-.067a1.409,1.409,0,0,0-1.018.4,1.277,1.277,0,0,0-.412.951.99.99,0,0,0,.375.782,1.873,1.873,0,0,0,1.208.31l2.334-.026a8.5,8.5,0,0,1,3.9.62,2.855,2.855,0,0,1,1.525,2.658,3.4,3.4,0,0,1-.7,2.084,4.111,4.111,0,0,1-1.849,1.383,11.244,11.244,0,0,1-4.007.66,13.562,13.562,0,0,1-3.11-.321,4.282,4.282,0,0,1-2.01-.918,1.751,1.751,0,0,1-.608-1.233,1.585,1.585,0,0,1,.465-1.113,3.736,3.736,0,0,1,1.733-.83,2.65,2.65,0,0,1-1.761-2.4,2.837,2.837,0,0,1,.715-1.809,5.656,5.656,0,0,1,2.267-1.525,5.54,5.54,0,0,1-2.617-1.742,4.051,4.051,0,0,1-.81-2.5,4.174,4.174,0,0,1,1.511-3.2,5.6,5.6,0,0,1,3.885-1.356A7.045,7.045,0,0,1,462.088,82.6Zm-3.13,14.328a4.625,4.625,0,0,0-1.821.231,1.262,1.262,0,0,0-.77,1.133,1.562,1.562,0,0,0,.8,1.249,5.575,5.575,0,0,0,2.994.56,7.129,7.129,0,0,0,2.948-.5,1.55,1.55,0,0,0,1.073-1.409.826.826,0,0,0-.2-.567,1.955,1.955,0,0,0-1.1-.555,30.4,30.4,0,0,0-3.919-.141Zm.8-14.018a1.575,1.575,0,0,0-1.323.789,6.511,6.511,0,0,0-.539,3.273,5.112,5.112,0,0,0,.528,2.76,1.519,1.519,0,0,0,1.261.749,1.613,1.613,0,0,0,1.349-.742,5.324,5.324,0,0,0,.539-2.887,6.246,6.246,0,0,0-.606-3.292,1.379,1.379,0,0,0-1.212-.648Z" transform="translate(-374.108 -68.452)"/>
    <path id="Path_7" data-name="Path 7" class="cls-1" d="M540.388,63.923a6.643,6.643,0,0,1-4.143,2.036,2.445,2.445,0,0,1-1.795-.7,2.392,2.392,0,0,1-.715-1.774,3.49,3.49,0,0,1,1.233-2.6,23.152,23.152,0,0,1,5.411-3.07V56.545a6.133,6.133,0,0,0-.155-1.8,1.448,1.448,0,0,0-.587-.648,1.761,1.761,0,0,0-.972-.277,2.487,2.487,0,0,0-1.444.391.689.689,0,0,0-.352.567,1.192,1.192,0,0,0,.379.7,1.731,1.731,0,0,1,.513,1.12,1.494,1.494,0,0,1-.493,1.125,1.8,1.8,0,0,1-1.289.465,2.055,2.055,0,0,1-1.423-.513,1.564,1.564,0,0,1-.562-1.2,2.8,2.8,0,0,1,.77-1.855,4.863,4.863,0,0,1,2.145-1.356,8.761,8.761,0,0,1,2.862-.474,4.73,4.73,0,0,1,2.841.763,3.571,3.571,0,0,1,1.356,1.654,10.719,10.719,0,0,1,.188,2.6v4.9a5.075,5.075,0,0,0,.067,1.087.65.65,0,0,0,.2.331.481.481,0,0,0,.31.107q.352,0,.715-.5l.405.324a4.908,4.908,0,0,1-1.4,1.45,3.017,3.017,0,0,1-1.638.453,2.563,2.563,0,0,1-1.687-.505A2.3,2.3,0,0,1,540.388,63.923Zm.579-17.391,2.741,5.154h-1.039L539.458,48.9l-3.306,2.7h-1.106l2.874-5.073h3.049Zm-.579,16.407V58.711a7.878,7.878,0,0,0-2.429,2.052,2.489,2.489,0,0,0-.528,1.469,1.543,1.543,0,0,0,.446,1.094,1.221,1.221,0,0,0,.944.365,2.541,2.541,0,0,0,1.568-.754Z" transform="translate(-439.727 -39.163)"/>
    <path id="Path_8" data-name="Path 8" class="cls-1" d="M615.641,82.447V84.08A7.415,7.415,0,0,1,617.5,82.55a3.983,3.983,0,0,1,1.916-.479,3.056,3.056,0,0,1,2.038.682,3.273,3.273,0,0,1,1.08,1.693,13.01,13.01,0,0,1,.217,2.955v4.911a3.759,3.759,0,0,0,.262,1.814,1.542,1.542,0,0,0,1.1.451v.486h-6.383v-.486a1.335,1.335,0,0,0,1.025-.594,3.9,3.9,0,0,0,.215-1.673V86.7a9.176,9.176,0,0,0-.122-1.957,1.2,1.2,0,0,0-.412-.627,1.032,1.032,0,0,0-.641-.224q-1.161,0-2.159,1.659v6.76A3.8,3.8,0,0,0,615.9,94.1a1.3,1.3,0,0,0,.978.472v.486H610.5v-.486a1.556,1.556,0,0,0,1.133-.513,3.811,3.811,0,0,0,.229-1.761V85.186a3.627,3.627,0,0,0-.262-1.781,1.6,1.6,0,0,0-1.1-.46v-.5Z" transform="translate(-502.972 -68.442)"/>
    <path id="Path_9" data-name="Path 9" class="cls-1" d="M712.233,63.869l-.687,6.422H695.3v-.5h.608a2.527,2.527,0,0,0,1.277-.282,1.233,1.233,0,0,0,.541-.648,5.564,5.564,0,0,0,.148-1.7V55.125a6.083,6.083,0,0,0-.148-1.761,1.351,1.351,0,0,0-.6-.615,2.422,2.422,0,0,0-1.221-.262h-.6V52h9.758v.5h-.8a2.531,2.531,0,0,0-1.282.282,1.294,1.294,0,0,0-.555.648,5.561,5.561,0,0,0-.148,1.7V66.788a5.867,5.867,0,0,0,.162,1.788,1.075,1.075,0,0,0,.634.574,6.4,6.4,0,0,0,1.631.122h1.525a5.17,5.17,0,0,0,2.429-.513,4.524,4.524,0,0,0,1.68-1.619,13.3,13.3,0,0,0,1.342-3.265h.553Z" transform="translate(-572.836 -43.67)"/>
    <path id="Path_10" data-name="Path 10" class="cls-1" d="M815.793,85.653a.68.68,0,0,0,.282-.336.257.257,0,0,0,0-.231,1.9,1.9,0,0,0-.539-.405,1.056,1.056,0,0,1-.338-.379,1.294,1.294,0,0,1,.528-1.916,1.515,1.515,0,0,1,1.2-.122,1.642,1.642,0,0,1,1.233,1.742,2.466,2.466,0,0,1-.134.77,2.109,2.109,0,0,1-1.363,1.309,6.852,6.852,0,0,1-2.536.377v5.966a3.87,3.87,0,0,0,.27,1.807,1.449,1.449,0,0,0,1.092.444v.486h-5.141V93.477a4.946,4.946,0,0,1-3.824,2.068,2.994,2.994,0,0,1-1.888-.662,3.058,3.058,0,0,1-1.113-1.511,11.143,11.143,0,0,1-.289-3.075V85.288a3.689,3.689,0,0,0-.27-1.781,1.5,1.5,0,0,0-1.094-.46v-.5H807v8.622q0,1.937.541,2.334a1.025,1.025,0,0,0,.632.2q.985,0,2.172-1.673V85.288a3.69,3.69,0,0,0-.269-1.781,1.5,1.5,0,0,0-1.094-.46v-.5h5.152v3.413A4.755,4.755,0,0,0,815.793,85.653Z" transform="translate(-660.635 -68.544)"/>
    <path id="Path_11" data-name="Path 11" class="cls-1" d="M911.68,79.141a2.265,2.265,0,0,1-1.369,1.388,6.933,6.933,0,0,1-2.348.282,8.037,8.037,0,0,1,.722,3.429,7.248,7.248,0,0,1-1.363,4.493,5.808,5.808,0,0,1-8.925.19,7.027,7.027,0,0,1-1.538-4.629,7.25,7.25,0,0,1,1.564-4.736,5.342,5.342,0,0,1,4.317-2.011,5.5,5.5,0,0,1,3.144.891,13.485,13.485,0,0,1,1.309,1.21,1.666,1.666,0,0,0,1.2.567,2.32,2.32,0,0,0,.824-.093.778.778,0,0,0,.484-.432.208.208,0,0,0,.014-.217,4.02,4.02,0,0,1-.891-.782,1.4,1.4,0,0,1-.176-1.057,1.343,1.343,0,0,1,.7-.856,1.483,1.483,0,0,1,1.194-.129,1.7,1.7,0,0,1,1.057.944A2.029,2.029,0,0,1,911.68,79.141ZM902.7,91.917a2.233,2.233,0,0,1,2.255,2.253,2.149,2.149,0,0,1-.661,1.585,2.186,2.186,0,0,1-1.585.655,2.235,2.235,0,0,1-2.24-2.24,2.181,2.181,0,0,1,.655-1.585,2.145,2.145,0,0,1,1.566-.668Zm2.038-8.729a13.821,13.821,0,0,0-.255-3.144,2.3,2.3,0,0,0-.756-1.256,1.42,1.42,0,0,0-.918-.282q-1.564,0-1.821,2.563-.162,1.539-.162,4.264a17.966,17.966,0,0,0,.19,2.7q.3,1.957,1.74,1.957,1.377,0,1.714-1.619a32.691,32.691,0,0,0,.257-5.182Z" transform="translate(-738.895 -63.92)"/>
    <path id="Path_12" data-name="Path 12" class="cls-1" d="M988.551,82.447V84.08a7.442,7.442,0,0,1,1.862-1.531,3.986,3.986,0,0,1,1.907-.479,3.054,3.054,0,0,1,2.038.682,3.264,3.264,0,0,1,1.08,1.693,13.008,13.008,0,0,1,.217,2.955v4.911a3.758,3.758,0,0,0,.262,1.814,1.542,1.542,0,0,0,1.1.451v.486h-6.381v-.486a1.331,1.331,0,0,0,1.025-.594,3.863,3.863,0,0,0,.217-1.673V86.7a9.188,9.188,0,0,0-.121-1.957,1.189,1.189,0,0,0-.412-.627,1.03,1.03,0,0,0-.639-.224q-1.161,0-2.159,1.659v6.76a3.8,3.8,0,0,0,.262,1.795,1.3,1.3,0,0,0,.978.472v.486H983.41v-.486a1.556,1.556,0,0,0,1.132-.513,3.784,3.784,0,0,0,.231-1.761V85.186a3.626,3.626,0,0,0-.262-1.781,1.6,1.6,0,0,0-1.1-.46v-.5h5.141Z" transform="translate(-810.201 -68.442)"/>
    <path id="Path_13" data-name="Path 13" class="cls-1" d="M1079.144,82.555h4.252V84.04h-2.411a4.591,4.591,0,0,1,.918,1.2,3.713,3.713,0,0,1,.315,1.532,3.776,3.776,0,0,1-.749,2.341,4.973,4.973,0,0,1-2.038,1.552,5.852,5.852,0,0,1-2.29.56q-.081,0-1.619-.067a1.409,1.409,0,0,0-1.018.4,1.277,1.277,0,0,0-.412.951.992.992,0,0,0,.375.782,1.88,1.88,0,0,0,1.208.31l2.334-.026a8.5,8.5,0,0,1,3.9.62,2.851,2.851,0,0,1,1.525,2.658,3.4,3.4,0,0,1-.7,2.084,4.1,4.1,0,0,1-1.848,1.383,11.248,11.248,0,0,1-4.007.66,13.549,13.549,0,0,1-3.1-.331,4.283,4.283,0,0,1-2.01-.918,1.751,1.751,0,0,1-.608-1.233,1.585,1.585,0,0,1,.465-1.113,3.737,3.737,0,0,1,1.735-.83,2.65,2.65,0,0,1-1.761-2.4,2.837,2.837,0,0,1,.715-1.809,5.656,5.656,0,0,1,2.267-1.525,5.54,5.54,0,0,1-2.617-1.742,4.052,4.052,0,0,1-.81-2.5,4.174,4.174,0,0,1,1.511-3.2,5.6,5.6,0,0,1,3.885-1.356A7.046,7.046,0,0,1,1079.144,82.555Zm-3.13,14.328a4.625,4.625,0,0,0-1.821.231,1.266,1.266,0,0,0-.77,1.133,1.562,1.562,0,0,0,.794,1.249,5.57,5.57,0,0,0,2.994.56,7.137,7.137,0,0,0,2.948-.5,1.547,1.547,0,0,0,1.073-1.409.826.826,0,0,0-.2-.567,1.951,1.951,0,0,0-1.1-.555,30.349,30.349,0,0,0-3.917-.141Zm.794-14.018a1.559,1.559,0,0,0-1.321.789,6.553,6.553,0,0,0-.541,3.273,5.114,5.114,0,0,0,.528,2.76,1.52,1.52,0,0,0,1.261.749,1.615,1.615,0,0,0,1.349-.742,5.345,5.345,0,0,0,.539-2.887,6.246,6.246,0,0,0-.606-3.292,1.379,1.379,0,0,0-1.21-.648Z" transform="translate(-882.485 -68.402)"/>
    <path id="Path_14" data-name="Path 14" class="cls-1" d="M1152.886,132.249a2.244,2.244,0,1,1-1.585.66A2.164,2.164,0,0,1,1152.886,132.249Z" transform="translate(-947.982 -109.784)"/>
    <path id="Path_15" data-name="Path 15" class="cls-1" d="M1190.789,97.215l-4.25-9.782a9.955,9.955,0,0,0-1.2-2.24,1.609,1.609,0,0,0-.917-.472v-.5h6.705v.5a1.22,1.22,0,0,0-.863.231.921.921,0,0,0-.324.7,6.032,6.032,0,0,0,.594,1.876l2.078,4.736,1.659-4.088a7.965,7.965,0,0,0,.715-2.483.858.858,0,0,0-.3-.682,1.754,1.754,0,0,0-1.074-.291v-.5h4.125v.5a1.678,1.678,0,0,0-.971.446,8.189,8.189,0,0,0-1.134,2.145l-4.2,9.906h-.632Z" transform="translate(-975.807 -70.215)"/>
    <path id="Path_16" data-name="Path 16" class="cls-1" d="M1271.943,82.448V84.08a7.438,7.438,0,0,1,1.862-1.531,3.987,3.987,0,0,1,1.916-.479,3.054,3.054,0,0,1,2.034.68,3.264,3.264,0,0,1,1.08,1.693,13.008,13.008,0,0,1,.217,2.955v4.911a3.758,3.758,0,0,0,.262,1.814,1.539,1.539,0,0,0,1.1.451v.486h-6.381v-.486a1.332,1.332,0,0,0,1.025-.594,3.868,3.868,0,0,0,.217-1.673V86.7a9.176,9.176,0,0,0-.122-1.957,1.188,1.188,0,0,0-.412-.627,1.03,1.03,0,0,0-.639-.224q-1.161,0-2.159,1.659v6.76a3.8,3.8,0,0,0,.262,1.795,1.3,1.3,0,0,0,.978.472v.486H1266.8v-.486a1.556,1.556,0,0,0,1.133-.513,3.784,3.784,0,0,0,.231-1.761V85.186a3.628,3.628,0,0,0-.262-1.781,1.6,1.6,0,0,0-1.1-.46v-.5Z" transform="translate(-1043.677 -68.442)"/>
    <path id="Path_17" data-name="Path 17" class="cls-3" d="M334.665,200h4.562v1.066h-1.55v8.278h-1.409v-8.278H334.66V200Z" transform="translate(-275.716 -165.602)"/>
    <path id="Path_18" data-name="Path 18" class="cls-3" d="M363.615,209.265V199.9h1.3v3.822h.03a1.43,1.43,0,0,1,1.379-.81h.386a.952.952,0,0,1,.856.636,4.226,4.226,0,0,1,.188,1.37v4.34h-1.293v-4.382a1.024,1.024,0,0,0-.2-.724.842.842,0,0,0-.56-.215q-.8,0-.8,1.111v4.217H363.61Z" transform="translate(-299.567 -165.52)"/>
    <path id="Path_19" data-name="Path 19" class="cls-3" d="M395.547,222.519a1.409,1.409,0,0,1-.5.664,1.27,1.27,0,0,1-.736.229,1.361,1.361,0,0,1-.881-.328,1.719,1.719,0,0,1-.562-.881,8.94,8.94,0,0,1-.245-2.031,7.45,7.45,0,0,1,.3-2.158,1.7,1.7,0,0,1,.558-.807,1.286,1.286,0,0,1,.775-.259,1.508,1.508,0,0,1,.831.247.988.988,0,0,1,.461.558h.026l.026-.7h1.293v6.276h-1.319v-.793h-.026Zm-1.451-3.933a9.037,9.037,0,0,0-.166,1.673,7.031,7.031,0,0,0,.166,1.478.812.812,0,0,0,.7.657.715.715,0,0,0,.507-.284,1.233,1.233,0,0,0,.262-.685q.056-1.133.056-1.314a8.4,8.4,0,0,0-.111-1.326,1,1,0,0,0-.259-.581.631.631,0,0,0-.456-.2A.748.748,0,0,0,394.1,218.586Z" transform="translate(-323.467 -179.567)"/>
    <path id="Path_20" data-name="Path 20" class="cls-3" d="M427.893,218.685v4.579H426.6v-4.4q0-.93-.756-.93a.722.722,0,0,0-.625.289,1.981,1.981,0,0,0-.176,1v4.04H423.75v-6.277h1.293v.733h.03a1.457,1.457,0,0,1,1.36-.83,1.333,1.333,0,0,1,1.115.437A2.2,2.2,0,0,1,427.893,218.685Z" transform="translate(-349.114 -179.514)"/>
    <path id="Path_21" data-name="Path 21" class="cls-3" d="M454.13,209.265V199.9h1.293v3.822h.03a1.438,1.438,0,0,1,1.386-.81h.386a.952.952,0,0,1,.856.636,4.237,4.237,0,0,1,.188,1.37v4.34h-1.291v-4.382a1.024,1.024,0,0,0-.2-.724.84.84,0,0,0-.56-.215q-.8,0-.8,1.111v4.217Z" transform="translate(-374.143 -165.52)"/>
    <path id="Path_22" data-name="Path 22" class="cls-3" d="M498.625,207.46H499.9v1.761h.7v.921h-.7V215.5h-1.279v-5.354h-.7v-.921h.7Z" transform="translate(-410.22 -171.748)"/>
    <path id="Path_23" data-name="Path 23" class="cls-3" d="M516.411,219.48a3.242,3.242,0,0,1,.636-1.957,1.885,1.885,0,0,1,1.5-.634,2.041,2.041,0,0,1,1.619.678,3.814,3.814,0,0,1,.594,2.466v.46q-.093,2.867-2.172,2.867a2.175,2.175,0,0,1-1.221-.321,1.962,1.962,0,0,1-.74-1,5.327,5.327,0,0,1-.266-1.753Q516.411,219.741,516.411,219.48Zm1.293.657a5.563,5.563,0,0,0,.176,1.647.7.7,0,0,0,.69.528.176.176,0,0,1,.1-.025.74.74,0,0,0,.616-.6,5.739,5.739,0,0,0,.166-1.585c0-.143-.011-.338-.018-.587a4.343,4.343,0,0,0-.081-.729,1.41,1.41,0,0,0-.257-.6.625.625,0,0,0-.528-.24.682.682,0,0,0-.7.565,6.514,6.514,0,0,0-.188,1.492.257.257,0,0,1,.03.132Z" transform="translate(-425.409 -179.515)"/>
    <path id="Path_24" data-name="Path 24" class="cls-3" d="M548.577,222.519a1.409,1.409,0,0,1-.5.664,1.27,1.27,0,0,1-.736.229,1.361,1.361,0,0,1-.881-.328,1.719,1.719,0,0,1-.562-.881,8.94,8.94,0,0,1-.245-2.031,7.452,7.452,0,0,1,.3-2.158,1.7,1.7,0,0,1,.558-.807,1.286,1.286,0,0,1,.775-.259,1.508,1.508,0,0,1,.831.247.988.988,0,0,1,.461.558h.026l.026-.7h1.293v6.276H548.6v-.793h-.026Zm-1.444-3.931a9.036,9.036,0,0,0-.166,1.673,7.033,7.033,0,0,0,.166,1.478.812.812,0,0,0,.7.657.715.715,0,0,0,.507-.284,1.233,1.233,0,0,0,.262-.685q.058-1.133.056-1.314a8.381,8.381,0,0,0-.111-1.326,1,1,0,0,0-.259-.581.63.63,0,0,0-.456-.2.735.735,0,0,0-.7.581Z" transform="translate(-449.544 -179.567)"/>
    <path id="Path_25" data-name="Path 25" class="cls-3" d="M555.287,203.154l-1.372,1.673-.7-.37,1.125-1.837Z" transform="translate(-455.772 -167.761)"/>
    <path id="Path_26" data-name="Path 26" class="cls-3" d="M580.959,218.685v4.579H579.67v-4.4q0-.93-.756-.93a.722.722,0,0,0-.625.289,1.98,1.98,0,0,0-.176,1v4.04H576.82v-6.277h1.293v.733h.03a1.457,1.457,0,0,1,1.36-.83,1.333,1.333,0,0,1,1.115.437A2.189,2.189,0,0,1,580.959,218.685Z" transform="translate(-475.224 -179.514)"/>
    <path id="Path_27" data-name="Path 27" class="cls-3" d="M621.315,207.46h1.279v1.761h.7v.921h-.7V215.5h-1.279v-5.354h-.7v-.921h.7Z" transform="translate(-511.301 -171.748)"/>
    <path id="Path_28" data-name="Path 28" class="cls-3" d="M640.45,223.241v-6.276h1.293l-.026.782h.063a1.517,1.517,0,0,1,1.471-.881v1.166a1.683,1.683,0,0,0-1.185.315,1.282,1.282,0,0,0-.315.948v3.944h-1.293Z" transform="translate(-527.646 -179.496)"/>
    <path id="Path_29" data-name="Path 29" class="cls-3" d="M665.515,212.552v4.137a2.4,2.4,0,0,1-.379,1.395,1.75,1.75,0,0,1-1.446.611,2.63,2.63,0,0,1-1.788-.488,2.152,2.152,0,0,1-.553-1.619v-4.264h1.293v4.342a1.332,1.332,0,0,0,.164.7.693.693,0,0,0,.639.262.683.683,0,0,0,.641-.262,1.422,1.422,0,0,0,.137-.657v-4.389h1.115a.568.568,0,0,0,.125-.035.48.48,0,0,1-.238-.7.565.565,0,0,1,.808-.289q.565.225.322.74l-.062.09a1.013,1.013,0,0,1-.775.43Z" transform="translate(-544.865 -174.855)"/>
    <path id="Path_30" data-name="Path 30" class="cls-3" d="M671.471,256.219q.779,0,.779.7t-.779.7a.8.8,0,0,1-.546-.215.65.65,0,0,1,0-.992A.8.8,0,0,1,671.471,256.219Z" transform="translate(-552.565 -211.92)"/>
    <path id="Path_31" data-name="Path 31" class="cls-3" d="M693.579,222.04v1.117a2.612,2.612,0,0,1-1.044.224,1.618,1.618,0,0,1-1.631-.916,5.577,5.577,0,0,1-.444-2.209,9.052,9.052,0,0,1,.164-1.585,2.549,2.549,0,0,1,.609-1.233,1.733,1.733,0,0,1,1.356-.52,2.378,2.378,0,0,1,.99.2v1.192h-.03a.736.736,0,0,0-.676-.3.813.813,0,0,0-.733.352,1.739,1.739,0,0,0-.285.745q-.049.384-.079,1.057a5.571,5.571,0,0,0,.225,1.485.9.9,0,0,0,.872.65A1.312,1.312,0,0,0,693.579,222.04Z" transform="translate(-568.848 -179.541)"/>
    <path id="Path_32" data-name="Path 32" class="cls-3" d="M727.625,207.46H728.9v1.761h.7v.921h-.7V215.5h-1.279v-5.354h-.7v-.921h.7Z" transform="translate(-598.886 -171.748)"/>
    <path id="Path_33" data-name="Path 33" class="cls-3" d="M746.6,217.44h1.293v4.342a1.332,1.332,0,0,0,.166.7.906.906,0,0,0,1.275,0,1.388,1.388,0,0,0,.141-.657V217.44h1.293V221.8a2.413,2.413,0,0,1-.379,1.391,1.751,1.751,0,0,1-1.45.615,2.647,2.647,0,0,1-1.786-.488,2.1,2.1,0,0,1-.551-1.619V217.44Z" transform="translate(-615.1 -179.971)"/>
    <path id="Path_34" data-name="Path 34" class="cls-3" d="M771.9,217.44h1.444l1.039,4.391h.028l1.154-4.389h1.307l-2.846,8.842h-1.333l1.071-3.075Z" transform="translate(-635.944 -179.971)"/>
    <path id="Path_35" data-name="Path 35" class="cls-3" d="M804.151,220.33q0,1.981.84,1.981a.689.689,0,0,0,.571-.3,1.473,1.473,0,0,0,.224-.895H807a2.618,2.618,0,0,1-.3,1.307,1.636,1.636,0,0,1-.74.685,2.59,2.59,0,0,1-.993.213,2.01,2.01,0,0,1-1.069-.275,1.879,1.879,0,0,1-.715-.84,3.924,3.924,0,0,1-.317-1.409,6.857,6.857,0,0,0-.028-.7q.06-3.248,2.075-3.248a1.8,1.8,0,0,1,1.36.528,2.565,2.565,0,0,1,.615,1.266,8.8,8.8,0,0,1,.146,1.673h-2.875Zm.026-.833H805.7q0-1.575-.771-1.575a.618.618,0,0,0-.56.331,2.675,2.675,0,0,0-.2,1.243Z" transform="translate(-661.426 -179.485)"/>
    <path id="Path_36" data-name="Path 36" class="cls-3" d="M806.67,197.026l1.691,1.726-.648.479-1.071-1.041-1,1.041-.717-.484Zm2.852-.685-1.37,1.67-.567-.314,1.125-1.837Z" transform="translate(-663.156 -162.192)"/>
    <path id="Path_37" data-name="Path 37" class="cls-3" d="M836.563,218.685v4.579H835.27v-4.4q0-.93-.756-.93a.72.72,0,0,0-.625.289,1.981,1.981,0,0,0-.176,1v4.04H832.42v-6.277h1.293v.733h.042a1.455,1.455,0,0,1,1.36-.83,1.33,1.33,0,0,1,1.115.437A2.17,2.17,0,0,1,836.563,218.685Z" transform="translate(-685.805 -179.514)"/>
    <path id="Path_38" data-name="Path 38" class="cls-3" d="M877.73,232.16H880.2v.944H877.73Z" transform="translate(-723.134 -192.098)"/>
    <path id="Path_39" data-name="Path 39" class="cls-3" d="M915,200h1.661a3.039,3.039,0,0,1,1.534.314,1.513,1.513,0,0,1,.69.759,4.02,4.02,0,0,1,.211,1.083v.437a2.641,2.641,0,0,1-.282,1.3,1.485,1.485,0,0,1-1,.687v.025a1.883,1.883,0,0,1,1.444,2.034,2.71,2.71,0,0,1-.016.352,1.773,1.773,0,0,0-.019.231q-.065,2.135-2.513,2.135H915Zm1.307,1.041v3.072a1.811,1.811,0,0,0,.9-.176.951.951,0,0,0,.439-.528,2.737,2.737,0,0,0,.12-.881,1.691,1.691,0,0,0-.308-1.113,1.057,1.057,0,0,0-.845-.361H916.3Zm0,4.065v3.17a1.656,1.656,0,0,0,1.124-.292,1.337,1.337,0,0,0,.352-.925v-.433a1.683,1.683,0,0,0-.335-1.171,1.33,1.33,0,0,0-1.013-.352H916.3Z" transform="translate(-753.84 -165.602)"/>
    <path id="Path_40" data-name="Path 40" class="cls-3" d="M947.92,222.478a1.4,1.4,0,0,1-.5.664,1.27,1.27,0,0,1-.736.229,1.362,1.362,0,0,1-.881-.328,1.716,1.716,0,0,1-.562-.881,8.9,8.9,0,0,1-.24-2.04,7.452,7.452,0,0,1,.3-2.158,1.7,1.7,0,0,1,.558-.807,1.287,1.287,0,0,1,.775-.259,1.5,1.5,0,0,1,.831.247.986.986,0,0,1,.461.558h.028l.026-.7h1.293v6.276h-1.319v-.793h-.028Zm-1.443-3.931a9.1,9.1,0,0,0-.166,1.673,7.083,7.083,0,0,0,.166,1.478.814.814,0,0,0,.7.657.715.715,0,0,0,.507-.284,1.233,1.233,0,0,0,.262-.685q.056-1.133.056-1.314a8.477,8.477,0,0,0-.111-1.326,1.006,1.006,0,0,0-.259-.581.631.631,0,0,0-.456-.2.734.734,0,0,0-.7.581Z" transform="translate(-778.556 -179.526)"/>
    <path id="Path_41" data-name="Path 41" class="cls-3" d="M952.809,203.961a.779.779,0,0,1,.062-.321.5.5,0,0,1,.3-.22,2.113,2.113,0,0,1,.722-.092q1.143,0,1.141.62v.012a1.967,1.967,0,0,1-.019.317.408.408,0,0,1-.1.222.472.472,0,0,1-.243.153,1.532,1.532,0,0,1-.456.055v.514h-.685v-.736h.151a.854.854,0,0,0,.49-.093.352.352,0,0,0,.12-.3V204a.425.425,0,0,0-.653-.335.428.428,0,0,0-.085.176.263.263,0,0,1,.021.109h-.756Z" transform="translate(-784.989 -168.343)"/>
    <path id="Path_42" data-name="Path 42" class="cls-3" d="M974.807,219.48a3.243,3.243,0,0,1,.636-1.957,1.885,1.885,0,0,1,1.5-.634,2.043,2.043,0,0,1,1.619.678,3.815,3.815,0,0,1,.594,2.466v.46q-.081,2.864-2.158,2.864a2.173,2.173,0,0,1-1.221-.321,1.965,1.965,0,0,1-.742-1,5.318,5.318,0,0,1-.264-1.753Q974.807,219.741,974.807,219.48Zm1.293.657a5.563,5.563,0,0,0,.176,1.647.7.7,0,0,0,.69.528.186.186,0,0,1,.1-.025.737.737,0,0,0,.616-.6,5.739,5.739,0,0,0,.166-1.585c0-.143-.011-.338-.016-.587a4.434,4.434,0,0,0-.081-.729,1.409,1.409,0,0,0-.257-.6.623.623,0,0,0-.528-.24.683.683,0,0,0-.7.565,6.566,6.566,0,0,0-.188,1.492.258.258,0,0,1,.037.132Z" transform="translate(-803.078 -179.515)"/>
    <path id="Path_43" data-name="Path 43" class="cls-3" d="M1018.85,217.6h1.39l.919,4.722h.026l.99-4.722h1.233l-1.83,6.247h-.867Z" transform="translate(-839.398 -180.102)"/>
    <path id="Path_44" data-name="Path 44" class="cls-3" d="M1049.211,220.33q0,1.981.84,1.981a.689.689,0,0,0,.571-.3,1.472,1.472,0,0,0,.224-.895h1.212a2.619,2.619,0,0,1-.3,1.307,1.637,1.637,0,0,1-.74.685,2.592,2.592,0,0,1-.993.213,2.007,2.007,0,0,1-1.069-.275,1.877,1.877,0,0,1-.715-.84,3.922,3.922,0,0,1-.317-1.409c0-.289-.01-.528-.028-.7q.06-3.248,2.075-3.248a1.8,1.8,0,0,1,1.36.528,2.562,2.562,0,0,1,.615,1.266,8.791,8.791,0,0,1,.146,1.673h-2.875Zm.027-.833h1.527q0-1.575-.771-1.575a.618.618,0,0,0-.56.331A2.7,2.7,0,0,0,1049.238,219.5Z" transform="translate(-863.324 -179.485)"/>
    <path id="Path_45" data-name="Path 45" class="cls-3" d="M1051.681,202.48l1.691,1.726-.646.479-1.071-1.041-1.008,1.041-.717-.484Zm-.118,9.465q.778,0,.778.7t-.778.7q-.779,0-.779-.7T1051.563,211.945Z" transform="translate(-865.004 -167.646)"/>
    <path id="Path_46" data-name="Path 46" class="cls-3" d="M1097.623,218.685v4.579h-1.293v-4.4q0-.93-.756-.93a.724.724,0,0,0-.625.289,1.983,1.983,0,0,0-.176,1v4.04h-1.293v-6.277h1.293v.733h.032a1.458,1.458,0,0,1,1.36-.83,1.335,1.335,0,0,1,1.113.437A2.171,2.171,0,0,1,1097.623,218.685Z" transform="translate(-900.884 -179.514)"/>
    <path id="Path_47" data-name="Path 47" class="cls-3" d="M1125.425,222.538a1.255,1.255,0,0,1-1.182.856,1.437,1.437,0,0,1-1.332-.773,5.305,5.305,0,0,1-.442-2.5,7.021,7.021,0,0,1,.243-2.015,1.7,1.7,0,0,1,.6-.939,1.729,1.729,0,0,1,.881-.269,1.35,1.35,0,0,1,1.233.881l.028-.049v-.7h1.293v6.247a5.793,5.793,0,0,1-.158,1.5,1.5,1.5,0,0,1-.6.868,2.244,2.244,0,0,1-1.261.3,2.566,2.566,0,0,1-1.608-.47,1.844,1.844,0,0,1-.537-1.49h1.266q0,.921.84.921.768,0,.77-.921v-1.437h-.028Zm-1.631-2.415a5.314,5.314,0,0,0,.194,1.626.768.768,0,0,0,.671.606.645.645,0,0,0,.643-.564,6.771,6.771,0,0,0,.153-1.668q0-2.158-.8-2.158a.62.62,0,0,0-.509.217,1.41,1.41,0,0,0-.253.671A10.119,10.119,0,0,0,1123.794,220.123Z" transform="translate(-924.766 -179.526)"/>
    <path id="Path_48" data-name="Path 48" class="cls-3" d="M1157.789,212.552v4.137a2.4,2.4,0,0,1-.38,1.395,1.75,1.75,0,0,1-1.446.611,2.63,2.63,0,0,1-1.788-.488,2.156,2.156,0,0,1-.555-1.619v-4.264h1.3v4.342a1.332,1.332,0,0,0,.164.7.912.912,0,0,0,1.281,0,1.423,1.423,0,0,0,.137-.657v-4.389h1.111a.571.571,0,0,0,.125-.035.48.48,0,0,1-.238-.7.565.565,0,0,1,.808-.289c.377.15.483.4.322.74l-.062.09a1.013,1.013,0,0,1-.775.43Z" transform="translate(-950.431 -174.855)"/>
    <path id="Path_49" data-name="Path 49" class="cls-3" d="M1182.8,214.865a3.232,3.232,0,0,1,.632-1.959,1.89,1.89,0,0,1,1.5-.632,2.332,2.332,0,0,1,.881.155,2.469,2.469,0,0,0,.328-.081.482.482,0,0,1-.248-.7.562.562,0,0,1,.814-.289c.375.148.484.393.321.733a.5.5,0,0,1-.056.093,1.057,1.057,0,0,1-.8.432,2.077,2.077,0,0,1,.377.333,3.811,3.811,0,0,1,.6,2.466v.46q-.079,2.86-2.157,2.86a2.17,2.17,0,0,1-1.222-.317,1.9,1.9,0,0,1-.74-1,5.157,5.157,0,0,1-.264-1.753q.055-.581.055-.8h0Zm1.289.657a5.68,5.68,0,0,0,.176,1.65.7.7,0,0,0,.69.528.176.176,0,0,1,.1-.026.73.73,0,0,0,.618-.6,5.682,5.682,0,0,0,.176-1.585c0-.139-.012-.335-.019-.587a4.544,4.544,0,0,0-.081-.729,1.51,1.51,0,0,0-.257-.6.625.625,0,0,0-.528-.241.68.68,0,0,0-.7.565,6.3,6.3,0,0,0-.187,1.5.3.3,0,0,1,.026.123h0Z" transform="translate(-974.432 -174.9)"/>
    <path id="Path_50" data-name="Path 50" class="cls-3" d="M1190.24,203.089l.828-.479,1.125,1.837-.578.312Z" transform="translate(-980.601 -167.753)"/>
    <path id="Path_51" data-name="Path 51" class="cls-3" d="M1211.84,203.1a.72.72,0,0,1,.257-.544.868.868,0,0,1,.609-.236.844.844,0,0,1,.6.236.738.738,0,0,1,.019,1.09.793.793,0,0,1-.567.222.964.964,0,0,1-.664-.227A.7.7,0,0,1,1211.84,203.1Zm1.509,1.883v6.276h-1.293v-6.276Z" transform="translate(-998.397 -167.513)"/>
    <path id="Path_52" data-name="Path 52" class="cls-3" d="M1243.13,223.251v-6.276h1.321v.782h.03a1.42,1.42,0,0,1,1.36-.881,1.52,1.52,0,0,1,.8.247,1.03,1.03,0,0,1,.435.632h.026a1.449,1.449,0,0,1,.641-.69,2.143,2.143,0,0,1,.94-.187,1.294,1.294,0,0,1,1.376,1.464v4.909h-1.295v-4.4a1.123,1.123,0,0,0-.176-.743.692.692,0,0,0-.516-.185.757.757,0,0,0-.634.243,1.241,1.241,0,0,0-.192.775v4.313h-1.293v-4.239a1.763,1.763,0,0,0-.141-.826.622.622,0,0,0-.56-.262.7.7,0,0,0-.641.287,2.236,2.236,0,0,0-.185,1.1v3.944h-1.293Z" transform="translate(-1024.176 -179.506)"/>
    <path id="Path_53" data-name="Path 53" class="cls-3" d="M1289.21,217.44h1.293v4.342a1.331,1.331,0,0,0,.166.7.906.906,0,0,0,1.275,0,1.387,1.387,0,0,0,.141-.657V217.44h1.293V221.8A2.423,2.423,0,0,1,1293,223.2a1.751,1.751,0,0,1-1.449.615,2.651,2.651,0,0,1-1.788-.488,2.1,2.1,0,0,1-.55-1.619V217.44Z" transform="translate(-1062.14 -179.971)"/>
    <path id="Path_54" data-name="Path 54" class="cls-3" d="M1319.247,222.519a1.409,1.409,0,0,1-.5.664,1.269,1.269,0,0,1-.736.229,1.361,1.361,0,0,1-.881-.328,1.724,1.724,0,0,1-.562-.881,8.982,8.982,0,0,1-.245-2.031,7.455,7.455,0,0,1,.3-2.158,1.706,1.706,0,0,1,.56-.807,1.284,1.284,0,0,1,.775-.259,1.511,1.511,0,0,1,.831.247.991.991,0,0,1,.461.558h.026l.028-.7h1.293v6.276h-1.319v-.793h-.026Zm-1.444-3.931a8.974,8.974,0,0,0-.166,1.673,6.981,6.981,0,0,0,.166,1.478.812.812,0,0,0,.7.657.715.715,0,0,0,.507-.284,1.213,1.213,0,0,0,.262-.685c.039-.756.056-1.192.056-1.314a8.3,8.3,0,0,0-.111-1.326,1,1,0,0,0-.257-.581.63.63,0,0,0-.458-.2.737.737,0,0,0-.7.581Z" transform="translate(-1084.475 -179.567)"/>
  </g>
</svg>
